<svg width="70" height="50" viewBox="0 0 70 50" fill="none" xmlns="http://www.w3.org/2000/svg">
<g clip-path="url(#clip0_4_7)">
<path d="M28.7799 14.9812L32.9007 7.86453L30.6923 4.04133C30.0569 2.92896 29.135 2.01912 28.0293 1.40529C26.9921 0.828853 25.8116 0.526611 24.6187 0.526611C23.4226 0.526611 22.2452 0.831968 21.208 1.40529C20.1023 2.01912 19.1804 2.90403 18.5387 4.01329L0.327026 35.437H8.56232L24.6155 7.73678L28.7799 14.9812Z" fill="white"/>
<path d="M67.5861 29.1367L53.3145 4.05692L53.3051 4.03822C52.6666 2.92896 51.7416 2.01912 50.6358 1.40529C49.5986 0.828853 48.4182 0.526611 47.2252 0.526611C46.0292 0.526611 44.8518 0.831969 43.8146 1.40529C42.7089 2.01912 41.7869 2.92585 41.1453 4.03511L15.0752 49.0535H23.3105L47.2221 7.7586L61.3971 32.667L61.4065 32.6857C62.5309 34.6363 62.5309 36.9639 61.4065 38.9144C60.2821 40.8649 58.2638 42.0303 56.0149 42.0303C53.7973 42.0303 51.7291 40.8369 50.6203 38.9144L44.5341 28.364L40.4134 35.4838L44.4469 42.479C45.618 44.5074 47.3062 46.1994 49.3339 47.3709C51.3616 48.5425 53.6696 49.1626 56.0118 49.1626C58.4538 49.1626 60.8272 48.5113 62.8798 47.2775C64.8109 46.1152 66.4367 44.4576 67.5736 42.4852C68.7136 40.5129 69.3365 38.2756 69.377 36.0229C69.4206 33.6298 68.8008 31.2493 67.5861 29.1367Z" fill="white"/>
</g>
<defs>
<clipPath id="clip0_4_7">
<rect width="70" height="49.4118" fill="white"/>
</clipPath>
</defs>
</svg>
